<svg width="48" height="48" viewBox="0 0 48 48" fill="none" xmlns="http://www.w3.org/2000/svg">
  <rect width="48" height="48" rx="8" fill="#1E6AFF"/>
  <path d="M24 12C17.3726 12 12 17.3726 12 24C12 30.6274 17.3726 36 24 36C30.6274 36 36 30.6274 36 24C36 17.3726 30.6274 12 24 12ZM24 32C19.5817 32 16 28.4183 16 24C16 19.5817 19.5817 16 24 16C28.4183 16 32 19.5817 32 24C32 28.4183 28.4183 32 24 32Z" fill="white"/>
  <path d="M20 20H22V28H20V20Z" fill="white"/>
  <path d="M26 20H28V28H26V20Z" fill="white"/>
  <path d="M20 22H28V24H20V22Z" fill="white"/>
</svg>

