<svg width="22" height="22" viewBox="0 0 22 22" fill="none" xmlns="http://www.w3.org/2000/svg">
<path fill-rule="evenodd" clip-rule="evenodd" d="M10.6041 2.25756C8.66006 2.25756 7.0841 3.83352 7.0841 5.77756C7.0841 7.72161 8.66006 9.29754 10.6041 9.29754C12.5482 9.29754 14.1241 7.72161 14.1241 5.77756C14.1241 3.83352 12.5482 2.25756 10.6041 2.25756ZM6.2041 5.77756C6.2041 3.34751 8.17405 1.37756 10.6041 1.37756C13.0342 1.37756 15.0041 3.34751 15.0041 5.77756C15.0041 8.20761 13.0342 10.1775 10.6041 10.1775C8.17405 10.1775 6.2041 8.20761 6.2041 5.77756Z" fill="#9516DF" stroke="#9516DF" stroke-width="0.5"/>
<path fill-rule="evenodd" clip-rule="evenodd" d="M10.1337 12.9516C10.1465 13.1944 9.96011 13.4014 9.7175 13.4143C7.48726 13.5317 5.2767 14.1301 3.24579 15.2093C3.12864 15.2715 3.05542 15.3934 3.05542 15.526V18.7573C3.05542 19.0003 3.2524 19.1973 3.49541 19.1973H9.69436C9.93732 19.1973 10.1344 19.3943 10.1344 19.6373C10.1344 19.8803 9.93732 20.0773 9.69436 20.0773H3.49541C2.7664 20.0773 2.17542 19.4864 2.17542 18.7573V15.526C2.17542 15.0679 2.42828 14.6471 2.83285 14.4322C4.97874 13.2919 7.31467 12.6596 9.67121 12.5354C9.91383 12.5226 10.1209 12.709 10.1337 12.9516Z" fill="#9516DF" stroke="#9516DF" stroke-width="0.5"/>
<path fill-rule="evenodd" clip-rule="evenodd" d="M14.4372 11.2248C14.8249 10.7856 15.3935 10.5075 16.0264 10.5075H17.7056C18.8759 10.5075 19.8247 11.4564 19.8247 12.6267V18.5035C19.8247 19.6739 18.8759 20.6226 17.7056 20.6226H16.0264C15.3935 20.6226 14.8249 20.3445 14.4372 19.9053C14.2765 19.7232 14.2938 19.4451 14.476 19.2843C14.6581 19.1234 14.9362 19.1408 15.097 19.323C15.3247 19.581 15.6564 19.7426 16.0264 19.7426H17.7056C18.3899 19.7426 18.9447 19.1879 18.9447 18.5035V12.6267C18.9447 11.9423 18.3899 11.3875 17.7056 11.3875H16.0264C15.6564 11.3875 15.3247 11.5492 15.097 11.8072C14.9362 11.9894 14.6581 12.0067 14.476 11.8459C14.2938 11.6851 14.2765 11.4071 14.4372 11.2248Z" fill="#9516DF" stroke="#9516DF" stroke-width="0.5"/>
<path fill-rule="evenodd" clip-rule="evenodd" d="M16.0669 15.2538C16.2388 15.4257 16.2388 15.7043 16.0669 15.8762L14.3069 17.6362C14.1351 17.8079 13.8565 17.8079 13.6847 17.6362C13.5128 17.4643 13.5128 17.1857 13.6847 17.0138L15.4447 15.2538C15.6165 15.0821 15.8951 15.0821 16.0669 15.2538Z" fill="#9516DF" stroke="#9516DF" stroke-width="0.5"/>
<path fill-rule="evenodd" clip-rule="evenodd" d="M16.0669 15.8762C16.2388 15.7043 16.2388 15.4257 16.0669 15.2538L14.3069 13.4938C14.1351 13.322 13.8565 13.322 13.6847 13.4938C13.5128 13.6657 13.5128 13.9443 13.6847 14.1162L15.4447 15.8762C15.6165 16.0479 15.8951 16.0479 16.0669 15.8762Z" fill="#9516DF" stroke="#9516DF" stroke-width="0.5"/>
<path fill-rule="evenodd" clip-rule="evenodd" d="M10.4758 15.565C10.4758 15.322 10.6728 15.125 10.9158 15.125H15.3158C15.5588 15.125 15.7558 15.322 15.7558 15.565C15.7558 15.808 15.5588 16.005 15.3158 16.005H10.9158C10.6728 16.005 10.4758 15.808 10.4758 15.565Z" fill="#9516DF" stroke="#9516DF" stroke-width="0.5"/>
</svg>
