<svg width="24" height="24" viewBox="0 0 24 24" fill="none" xmlns="http://www.w3.org/2000/svg">
<path fill-rule="evenodd" clip-rule="evenodd" d="M11.568 2.46293C9.44729 2.46293 7.72807 4.18216 7.72807 6.30293C7.72807 8.4237 9.44729 10.1429 11.568 10.1429C13.6889 10.1429 15.408 8.4237 15.408 6.30293C15.408 4.18216 13.6889 2.46293 11.568 2.46293ZM6.76807 6.30293C6.76807 3.65197 8.9171 1.50293 11.568 1.50293C14.2191 1.50293 16.368 3.65197 16.368 6.30293C16.368 8.95389 14.2191 11.1029 11.568 11.1029C8.9171 11.1029 6.76807 8.95389 6.76807 6.30293Z" fill="#7691B2"/>
<path d="M15.9683 6.30273C15.9682 3.87277 13.9979 1.90332 11.5679 1.90332C9.13801 1.9034 7.16856 3.87282 7.16846 6.30273C7.16846 8.73273 9.13794 10.703 11.5679 10.7031C13.998 10.7031 15.9683 8.73278 15.9683 6.30273ZM15.0083 6.30273C15.0082 4.40296 13.4677 2.86328 11.5679 2.86328C9.66819 2.86336 8.12852 4.40301 8.12842 6.30273C8.12842 8.20255 9.66813 9.74308 11.5679 9.74316C13.4678 9.74316 15.0083 8.2026 15.0083 6.30273ZM15.8081 6.30273C15.8081 8.64442 13.9096 10.543 11.5679 10.543C9.2263 10.5429 7.32764 8.64437 7.32764 6.30273C7.32774 3.96119 9.22636 2.06258 11.5679 2.0625C13.9096 2.0625 15.808 3.96114 15.8081 6.30273ZM16.7681 6.30273C16.7681 9.17461 14.4398 11.5029 11.5679 11.5029C8.69611 11.5028 6.36768 9.17456 6.36768 6.30273C6.36778 3.431 8.69617 1.10262 11.5679 1.10254C14.4398 1.10254 16.768 3.43095 16.7681 6.30273Z" fill="#7691B2"/>
<path fill-rule="evenodd" clip-rule="evenodd" d="M11.0551 14.1291C11.069 14.3938 10.8657 14.6197 10.601 14.6337C8.16803 14.7619 5.75651 15.4146 3.54098 16.592C3.41317 16.6598 3.33329 16.7928 3.33329 16.9375V20.4625C3.33329 20.7276 3.54819 20.9425 3.81329 20.9425H10.5758C10.8408 20.9425 11.0558 21.1574 11.0558 21.4225C11.0558 21.6876 10.8408 21.9025 10.5758 21.9025H3.81329C3.018 21.9025 2.37329 21.2578 2.37329 20.4625V16.9375C2.37329 16.4377 2.64915 15.9787 3.09049 15.7442C5.43147 14.5002 7.97975 13.8104 10.5505 13.675C10.8152 13.6611 11.0411 13.8644 11.0551 14.1291Z" fill="#7691B2"/>
<path d="M1.9729 20.4624V16.937C1.97306 16.2896 2.33087 15.695 2.90259 15.3911C5.29583 14.1194 7.90136 13.4144 10.5295 13.2759C11.0149 13.2504 11.4286 13.6228 11.4543 14.1079C11.4799 14.5932 11.1074 15.007 10.6223 15.0327C8.24865 15.1578 5.89547 15.7941 3.73364 16.9419V20.4624C3.73364 20.5066 3.7695 20.5425 3.81372 20.5425H10.5754C11.0614 20.5425 11.4553 20.9365 11.4553 21.4224C11.4553 21.9085 11.0614 22.3023 10.5754 22.3023H3.81372C2.79753 22.3023 1.9729 21.4787 1.9729 20.4624ZM2.77368 20.4624C2.77368 21.0369 3.23933 21.5025 3.81372 21.5025H10.5754C10.6196 21.5025 10.6555 21.4666 10.6555 21.4224C10.6555 21.3783 10.6195 21.3423 10.5754 21.3423H3.81372C3.32773 21.3423 2.93286 20.9485 2.93286 20.4624V16.937C2.93302 16.6446 3.09532 16.376 3.35376 16.2388L3.78052 16.0191C5.92951 14.9521 8.2455 14.3569 10.5803 14.2339C10.6243 14.2313 10.6578 14.1939 10.6555 14.1499C10.6536 14.1168 10.6321 14.0891 10.6028 14.0786L10.5715 14.0747C8.05832 14.2072 5.56716 14.8811 3.27856 16.0972C2.96799 16.2622 2.77384 16.5854 2.77368 16.937V20.4624Z" fill="#7691B2"/>
<path fill-rule="evenodd" clip-rule="evenodd" d="M15.7497 12.2454C16.1726 11.7663 16.7929 11.4629 17.4834 11.4629H19.3152C20.5919 11.4629 21.627 12.498 21.627 13.7747V20.1857C21.627 21.4625 20.5919 22.4975 19.3152 22.4975H17.4834C16.7929 22.4975 16.1726 22.1942 15.7497 21.715C15.5744 21.5163 15.5933 21.2129 15.792 21.0375C15.9907 20.8621 16.2941 20.881 16.4695 21.0798C16.7179 21.3612 17.0797 21.5375 17.4834 21.5375H19.3152C20.0617 21.5375 20.667 20.9323 20.667 20.1857V13.7747C20.667 13.0281 20.0617 12.4229 19.3152 12.4229H17.4834C17.0797 12.4229 16.7179 12.5992 16.4695 12.8807C16.2941 13.0794 15.9907 13.0983 15.792 12.923C15.5933 12.7475 15.5744 12.4442 15.7497 12.2454Z" fill="#7691B2"/>
<path d="M21.2271 13.7744C21.227 12.7187 20.3707 11.8633 19.315 11.8633H17.483C16.9122 11.8634 16.3996 12.1131 16.0494 12.5098C16.0202 12.5429 16.0233 12.5937 16.0562 12.623C16.0893 12.6522 16.1403 12.6493 16.1695 12.6162C16.4907 12.2524 16.96 12.0225 17.483 12.0225H19.315C20.2823 12.0225 21.0669 12.807 21.067 13.7744V20.1855C21.067 21.1531 20.2824 21.9375 19.315 21.9375H17.483C16.9601 21.9374 16.4907 21.7084 16.1695 21.3447C16.1403 21.3116 16.0893 21.3077 16.0562 21.3369V21.3379C16.0236 21.3671 16.0204 21.4172 16.0494 21.4502C16.3996 21.8469 16.9122 22.0976 17.483 22.0977H19.315C20.3708 22.0977 21.2271 21.2414 21.2271 20.1855V13.7744ZM22.027 20.1855C22.027 21.6833 20.8126 22.8975 19.315 22.8975H17.483C16.673 22.8974 15.9453 22.5409 15.4498 21.9795C15.1283 21.6151 15.1626 21.0589 15.527 20.7373C15.8913 20.4157 16.4476 20.4509 16.7691 20.8154C16.9448 21.0142 17.199 21.1376 17.483 21.1377H19.315C19.8406 21.1377 20.2672 20.7112 20.2672 20.1855V13.7744C20.267 13.2489 19.8406 12.8232 19.315 12.8232H17.483C17.1989 12.8233 16.9448 12.9465 16.7691 13.1455C16.4475 13.5098 15.8913 13.5442 15.527 13.2227C15.1628 12.901 15.1284 12.3449 15.4498 11.9805C15.9453 11.4192 16.6731 11.0626 17.483 11.0625H19.315C20.8126 11.0625 22.0268 12.2769 22.027 13.7744V20.1855Z" fill="#7691B2"/>
<path fill-rule="evenodd" clip-rule="evenodd" d="M17.5275 16.6405C17.715 16.828 17.715 17.132 17.5275 17.3195L15.6075 19.2395C15.42 19.4268 15.1162 19.4268 14.9287 19.2395C14.7412 19.052 14.7412 18.748 14.9287 18.5605L16.8487 16.6405C17.0362 16.4532 17.34 16.4532 17.5275 16.6405Z" fill="#7691B2"/>
<path d="M16.5666 16.3573C16.9103 16.0141 17.4671 16.0139 17.8107 16.3573C18.1544 16.701 18.1544 17.2587 17.8107 17.6024L15.8908 19.5224C15.5471 19.8659 14.9893 19.8659 14.6457 19.5224C14.3021 19.1786 14.302 18.6209 14.6457 18.2772L16.5656 16.3573H16.5666ZM17.2453 16.9237C17.214 16.8924 17.1633 16.8924 17.132 16.9237L15.2121 18.8436C15.181 18.8747 15.1804 18.9246 15.2111 18.9559C15.2424 18.9872 15.2941 18.9872 15.3254 18.9559L17.2453 17.036C17.2759 17.0049 17.276 16.9549 17.2453 16.9237Z" fill="#7691B2"/>
<path fill-rule="evenodd" clip-rule="evenodd" d="M17.5275 17.3195C17.715 17.132 17.715 16.8281 17.5275 16.6406L15.6075 14.7206C15.42 14.5332 15.1162 14.5332 14.9287 14.7206C14.7412 14.9081 14.7412 15.212 14.9287 15.3995L16.8487 17.3195C17.0362 17.5069 17.34 17.5069 17.5275 17.3195Z" fill="#7691B2"/>
<path d="M14.6457 14.4375C14.9678 14.1156 15.4778 14.0954 15.8234 14.377L15.8908 14.4375L17.8107 16.3574C18.1544 16.7011 18.1544 17.2589 17.8107 17.6026C17.4671 17.946 16.9103 17.9458 16.5666 17.6026H16.5656L14.6457 15.6826C14.302 15.3389 14.302 14.7812 14.6457 14.4375ZM15.3244 15.0029C15.2931 14.9722 15.2432 14.9729 15.2121 15.0039C15.1808 15.0352 15.1809 15.085 15.2121 15.1162L17.131 17.0361H17.132C17.1553 17.0595 17.1891 17.0661 17.2179 17.0547L17.2453 17.0361C17.2759 17.005 17.276 16.955 17.2453 16.9238L15.3244 15.0039V15.0029Z" fill="#7691B2"/>
<path fill-rule="evenodd" clip-rule="evenodd" d="M11.4282 16.98C11.4282 16.7149 11.6431 16.5 11.9082 16.5H16.7082C16.9733 16.5 17.1882 16.7149 17.1882 16.98C17.1882 17.2451 16.9733 17.46 16.7082 17.46H11.9082C11.6431 17.46 11.4282 17.2451 11.4282 16.98Z" fill="#7691B2"/>
<path d="M16.7886 16.9805C16.7886 16.9364 16.7525 16.9005 16.7085 16.9004H11.9087C11.8645 16.9004 11.8286 16.9363 11.8286 16.9805C11.8289 17.0244 11.8647 17.0596 11.9087 17.0596H16.7085C16.7524 17.0594 16.7883 17.0243 16.7886 16.9805ZM17.5884 16.9805C17.5881 17.4661 17.1942 17.8602 16.7085 17.8604H11.9087C11.4227 17.8604 11.0281 17.4662 11.0278 16.9805C11.0278 16.4946 11.4226 16.0996 11.9087 16.0996H16.7085C17.1943 16.0998 17.5884 16.4946 17.5884 16.9805Z" fill="#7691B2"/>
</svg>
