<svg width="31" height="26" viewBox="0 0 31 26" fill="none" xmlns="http://www.w3.org/2000/svg">
<path d="M0.517283 1.96681C0.938097 1.45711 1.56917 1.18911 2.4108 1.13551C3.94387 1.02805 4.81554 1.6715 5.0258 3.06612C5.95755 8.67086 6.9794 13.4175 8.06133 17.3058L14.6436 6.12334C15.2449 5.10418 15.9964 4.56793 16.8981 4.51433C18.2207 4.43393 19.032 5.18458 19.3627 6.76679C20.1142 10.3332 21.076 13.3636 22.218 15.9379C22.9995 9.12671 24.322 4.21928 26.1855 1.18911C26.6361 0.438203 27.2975 0.06275 28.1692 0.00889299C28.8606 -0.0444487 29.4917 0.143149 30.0627 0.545402C30.6337 0.947654 30.9343 1.45711 30.9944 2.07401C31.0245 2.55667 30.9343 2.95892 30.694 3.36117C29.5217 5.29204 28.5596 8.53686 27.7784 13.0418C27.0272 17.413 26.7565 20.8188 26.9368 23.2592C26.9971 23.9291 26.8767 24.5193 26.5763 25.029C26.2153 25.6188 25.6746 25.9407 24.9832 25.9943C24.2016 26.0479 23.3903 25.7263 22.6087 25.0022C19.8135 22.4544 17.5893 18.6465 15.9664 13.5783C14.0125 17.0107 12.5699 19.585 11.6381 21.3012C9.86474 24.3317 8.36199 25.8871 7.09955 25.9675C6.28796 26.0211 5.59681 25.4042 4.99577 24.1173C3.46298 20.6042 1.80976 13.8195 0.0366815 3.76342C-0.0837575 3.06612 0.096468 2.44921 0.517283 1.96681Z" fill="#9C5C8F"/>
</svg>
