<?xml version="1.0" encoding="UTF-8"?>
<svg id="Layer_1" xmlns="http://www.w3.org/2000/svg" version="1.1" viewBox="0 0 500 500">
  <!-- Generator: Adobe Illustrator 29.2.0, SVG Export Plug-In . SVG Version: 2.1.0 Build 108)  -->
  <defs>
    <style>
      .st0 {
        fill: #84c4f0;
      }
    </style>
  </defs>
  <path class="st0" d="M288.7,81.6l-73.2,73.2c-11.7,11.7-11.7,30.6,0,42.3l13.9,13.9c1.7,1.7,4.4,1.7,6,0l10.7-10.7c1.7-1.7,1.7-4.4,0-6l-13.9-13.9c-2.4-2.4-2.4-6.3,0-8.7l73.2-73.2c2.4-2.4,6.3-2.4,8.7,0l81.5,81.5c2.4,2.4,2.4,6.3,0,8.7l-73.2,73.2c-2.4,2.4-6.3,2.4-8.7,0l-13.9-13.9c-1.7-1.7-4.4-1.7-6,0l-10.7,10.7c-1.7,1.7-1.7,4.4,0,6l13.9,13.9c11.7,11.7,30.6,11.7,42.3,0l73.2-73.2c11.7-11.7,11.7-30.6,0-42.3l-81.5-81.5c-11.7-11.7-30.6-11.7-42.3,0Z"/>
  <path class="st0" d="M246.2,295.7l-10.7,10.7c-1.7,1.7-1.7,4.4,0,6l13.9,13.9c2.4,2.4,2.4,6.3,0,8.7l-73.2,73.2c-2.4,2.4-6.3,2.4-8.7,0l-81.5-81.5c-2.4-2.4-2.4-6.3,0-8.7l73.2-73.2c2.4-2.4,6.3-2.4,8.7,0l13.9,13.9c1.7,1.7,4.4,1.7,6,0l10.7-10.7c1.7-1.7,1.7-4.4,0-6l-13.9-13.9c-11.7-11.7-30.6-11.7-42.3,0l-73.2,73.2c-11.7,11.7-11.7,30.6,0,42.3l81.5,81.5c11.7,11.7,30.6,11.7,42.3,0l73.2-73.2c11.7-11.7,11.7-30.6,0-42.3l-13.9-13.9c-1.7-1.7-4.4-1.7-6,0Z"/>
  <rect class="st0" x="124.9" y="241.5" width="231.8" height="23.7" rx="4.3" ry="4.3" transform="translate(-108.6 244.4) rotate(-45)"/>
</svg>