<svg width="35" height="35" viewBox="0 0 35 35" fill="none" xmlns="http://www.w3.org/2000/svg">
<g id="Secure Server">
<path id="Vector" d="M12.4117 28.0544L10.1929 28.8026L7.97404 28.0544C3.96825 26.7036 1.271 22.9476 1.271 18.7202V9.9733L10.1929 6.94122L19.1147 9.9733V18.7202C19.1147 22.9476 16.4175 26.7036 12.4117 28.0544Z" stroke="white" stroke-width="2" stroke-miterlimit="10" stroke-linecap="round" stroke-linejoin="round"/>
<path id="Vector_2" d="M10.1927 6.94128V11.1329" stroke="white" stroke-width="2" stroke-miterlimit="10" stroke-linecap="round" stroke-linejoin="round"/>
<path id="Vector_3" d="M10.1927 24.7365V28.6233" stroke="white" stroke-width="2" stroke-miterlimit="10" stroke-linecap="round" stroke-linejoin="round"/>
<path id="Vector_4" d="M10.1928 17.5408C11.2056 17.5408 12.0266 16.7197 12.0266 15.7069C12.0266 14.6941 11.2056 13.873 10.1928 13.873C9.17994 13.873 8.35889 14.6941 8.35889 15.7069C8.35889 16.7197 9.17994 17.5408 10.1928 17.5408Z" stroke="white" stroke-width="2" stroke-miterlimit="10" stroke-linecap="round" stroke-linejoin="round"/>
<path id="Vector_5" d="M10.1927 17.5408V21.7177" stroke="white" stroke-width="2" stroke-miterlimit="10" stroke-linecap="round" stroke-linejoin="round"/>
<g id="Group">
<path id="Vector_6" d="M22 9.3811H31.777C32.8834 9.3811 33.7803 10.278 33.7803 11.3844V13.7285C33.7803 14.8349 32.8834 15.7318 31.777 15.7318H22" stroke="white" stroke-width="2" stroke-miterlimit="10" stroke-linecap="round" stroke-linejoin="round"/>
<path id="Vector_7" d="M22.862 13.3975C23.3264 13.3975 23.7029 13.021 23.7029 12.5565C23.7029 12.0921 23.3264 11.7156 22.862 11.7156C22.3975 11.7156 22.021 12.0921 22.021 12.5565C22.021 13.021 22.3975 13.3975 22.862 13.3975Z" fill="white"/>
<path id="Vector_8" d="M26.4977 13.3975C26.9621 13.3975 27.3387 13.021 27.3387 12.5565C27.3387 12.0921 26.9621 11.7156 26.4977 11.7156C26.0332 11.7156 25.6567 12.0921 25.6567 12.5565C25.6567 13.021 26.0332 13.3975 26.4977 13.3975Z" fill="white"/>
<path id="Vector_9" d="M30.1333 13.3975C30.5978 13.3975 30.9743 13.021 30.9743 12.5565C30.9743 12.0921 30.5978 11.7156 30.1333 11.7156C29.6689 11.7156 29.2924 12.0921 29.2924 12.5565C29.2924 13.021 29.6689 13.3975 30.1333 13.3975Z" fill="white"/>
</g>
<g id="Group_2">
<path id="Vector_10" d="M21.9999 20.7318H31.7769C32.8833 20.7318 33.7802 21.6288 33.7802 22.7352V25.0792C33.7802 26.1856 32.8833 27.0825 31.7769 27.0825H19" stroke="white" stroke-width="2" stroke-miterlimit="10" stroke-linecap="round" stroke-linejoin="round"/>
<path id="Vector_11" d="M22.862 24.7481C23.3264 24.7481 23.7029 24.3716 23.7029 23.9072C23.7029 23.4427 23.3264 23.0662 22.862 23.0662C22.3975 23.0662 22.021 23.4427 22.021 23.9072C22.021 24.3716 22.3975 24.7481 22.862 24.7481Z" fill="white"/>
<path id="Vector_12" d="M26.4976 24.7481C26.962 24.7481 27.3385 24.3716 27.3385 23.9072C27.3385 23.4427 26.962 23.0662 26.4976 23.0662C26.0331 23.0662 25.6566 23.4427 25.6566 23.9072C25.6566 24.3716 26.0331 24.7481 26.4976 24.7481Z" fill="white"/>
<path id="Vector_13" d="M30.1332 24.7481C30.5976 24.7481 30.9742 24.3716 30.9742 23.9072C30.9742 23.4427 30.5976 23.0662 30.1332 23.0662C29.6687 23.0662 29.2922 23.4427 29.2922 23.9072C29.2922 24.3716 29.6687 24.7481 30.1332 24.7481Z" fill="white"/>
</g>
</g>
</svg>
