<svg width="35" height="35" viewBox="0 0 35 35" fill="none" xmlns="http://www.w3.org/2000/svg">
<g id="User Lock">
<path id="Vector" d="M7.65625 32.7031H28.4375C29.0177 32.7031 29.5741 32.4727 29.9843 32.0624C30.3945 31.6522 30.625 31.0958 30.625 30.5156V28.875C30.6302 27.8563 30.4126 26.8488 29.9875 25.923C29.5624 24.9973 28.9401 24.1756 28.1641 23.5156C28.5496 22.8978 28.8062 22.2085 28.9186 21.489C29.031 20.7695 28.9967 20.0347 28.8179 19.3287C28.6392 18.6228 28.3195 17.9603 27.8782 17.381C27.4369 16.8017 26.8831 16.3176 26.25 15.9578V15.2031C26.25 14.3329 25.9043 13.4983 25.2889 12.8829C24.6736 12.2676 23.839 11.9219 22.9688 11.9219V9.73437C22.9688 7.70381 22.1621 5.75641 20.7263 4.32059C19.2905 2.88476 17.3431 2.07813 15.3125 2.07812C13.2819 2.07813 11.3345 2.88476 9.89871 4.32059C8.46289 5.75641 7.65625 7.70381 7.65625 9.73437V11.9219C6.78601 11.9219 5.95141 12.2676 5.33606 12.8829C4.7207 13.4983 4.375 14.3329 4.375 15.2031V29.4219C4.375 30.2921 4.7207 31.1267 5.33606 31.7421C5.95141 32.3574 6.78601 32.7031 7.65625 32.7031ZM28.4375 30.5156H18.5938V28.875C18.5956 28.1638 18.7545 27.4617 19.0588 26.8189C19.3632 26.1761 19.8057 25.6084 20.3547 25.1562C21.273 25.8249 22.3797 26.185 23.5156 26.185C24.6516 26.185 25.7582 25.8249 26.6766 25.1562C27.2256 25.6084 27.668 26.1761 27.9724 26.8189C28.2768 27.4617 28.4356 28.1638 28.4375 28.875V30.5156ZM23.5156 23.9531C22.8667 23.9531 22.2323 23.7607 21.6927 23.4001C21.1531 23.0396 20.7325 22.5271 20.4841 21.9276C20.2358 21.328 20.1708 20.6682 20.2974 20.0317C20.424 19.3952 20.7365 18.8106 21.1954 18.3517C21.6543 17.8928 22.239 17.5803 22.8755 17.4537C23.512 17.3271 24.1717 17.392 24.7713 17.6404C25.3709 17.8887 25.8833 18.3093 26.2439 18.8489C26.6044 19.3885 26.7969 20.0229 26.7969 20.6719C26.7969 21.5421 26.4512 22.3767 25.8358 22.9921C25.2205 23.6074 24.3859 23.9531 23.5156 23.9531ZM9.84375 9.73437C9.84398 8.65227 10.1652 7.59455 10.7668 6.6951C11.3685 5.79565 12.2234 5.09489 13.2234 4.68153C14.2235 4.26816 15.3237 4.16077 16.3848 4.37294C17.4459 4.58511 18.4202 5.10731 19.1844 5.87344C19.6945 6.37803 20.0986 6.97954 20.3728 7.6426C20.6471 8.30565 20.7859 9.01686 20.7812 9.73437V11.9219H9.84375V9.73437ZM6.5625 15.2031C6.5625 14.913 6.67773 14.6348 6.88285 14.4297C7.08797 14.2246 7.36617 14.1094 7.65625 14.1094H22.9688C23.2588 14.1094 23.537 14.2246 23.7421 14.4297C23.9473 14.6348 24.0625 14.913 24.0625 15.2031C23.8804 15.1923 23.6978 15.1923 23.5156 15.2031C22.0652 15.2031 20.6742 15.7793 19.6486 16.8049C18.623 17.8305 18.0469 19.2215 18.0469 20.6719C18.0497 21.6777 18.3339 22.6628 18.8672 23.5156C18.0912 24.1756 17.4689 24.9973 17.0438 25.923C16.6187 26.8488 16.4011 27.8563 16.4062 28.875V30.5156H7.65625C7.36617 30.5156 7.08797 30.4004 6.88285 30.1953C6.67773 29.9902 6.5625 29.712 6.5625 29.4219V15.2031Z" fill="white"/>
</g>
</svg>
