<svg width="35" height="35" viewBox="0 0 35 35" fill="none" xmlns="http://www.w3.org/2000/svg">
<g id="security">
<path id="Vector" d="M17.4929 26.0274C20.7801 26.0274 22.8265 22.7363 23.754 20.7747C24.098 20.0474 24.2725 19.2653 24.2725 18.4505V12.6487C24.2725 12.4994 24.2118 12.3561 24.1029 12.2533C23.9947 12.1499 23.8487 12.0985 23.7004 12.1024C20.0993 12.2697 17.9643 9.25314 17.944 9.22306C17.8418 9.07486 17.6733 8.98626 17.4934 8.98572H17.4923C17.3129 8.98572 17.1445 9.07431 17.0422 9.22197C17.0215 9.25259 14.8892 12.2648 11.2858 12.1018C11.1382 12.0991 10.9916 12.1494 10.8833 12.2527C10.7751 12.3556 10.7138 12.4988 10.7138 12.6481V18.4499C10.7138 19.2648 10.8883 20.0468 11.2322 20.7742C12.1597 22.7358 14.2061 26.0274 17.4929 26.0274ZM11.8076 13.1994C14.7136 13.1119 16.6627 11.3395 17.4929 10.4038C18.3236 11.3395 20.2726 13.1124 23.1787 13.1994V18.4505C23.1787 19.1024 23.0393 19.7269 22.7647 20.3077C21.9483 22.0358 20.1775 24.9342 17.4923 24.9342C14.8072 24.9342 13.0375 22.0358 12.2204 20.3077C11.9459 19.7274 11.8065 19.1029 11.8065 18.451V13.1999L11.8076 13.1994Z" fill="white"/>
<path id="Vector_2" d="M15.6937 18.0381V21.1728C15.6937 21.4747 15.9381 21.7197 16.2405 21.7197H18.7458C19.0482 21.7197 19.2926 21.4747 19.2926 21.1728V18.0381C19.8712 17.5252 20.2092 16.7858 20.2092 16.0092C20.2092 14.5119 18.9902 13.2935 17.4929 13.2935C15.9955 13.2935 14.7771 14.5119 14.7771 16.0092C14.7771 16.7858 15.1151 17.5252 15.6937 18.0381ZM17.4929 14.3872C18.3876 14.3872 19.1155 15.1151 19.1155 16.0092C19.1155 16.5304 18.859 17.0237 18.4291 17.3294C18.2848 17.4322 18.1989 17.5985 18.1989 17.7751V20.626H16.7874V17.7751C16.7874 17.5979 16.7016 17.4322 16.5572 17.3294C16.1273 17.0242 15.8708 16.531 15.8708 16.0092C15.8708 15.1146 16.5982 14.3872 17.4929 14.3872Z" fill="white"/>
<path id="Vector_3" d="M2.95257 24.2113C2.95257 25.6058 4.08734 26.7405 5.48187 26.7405C6.14359 26.7405 6.74187 26.4797 7.19304 26.0619L15.0927 30.6179C15.0161 30.8591 14.9636 31.1106 14.9636 31.377C14.9636 32.7715 16.0984 33.9062 17.4929 33.9062C18.8874 33.9062 20.0222 32.7715 20.0222 31.377C20.0222 31.1128 19.9702 30.8634 19.8948 30.6239L27.8064 26.0619C28.2576 26.4791 28.8559 26.7405 29.5176 26.7405C30.9121 26.7405 32.0469 25.6058 32.0469 24.2113C32.0469 23.0059 31.1976 21.998 30.0672 21.7459V12.8559C31.1976 12.6038 32.0469 11.5959 32.0469 10.3906C32.0469 8.99609 30.9121 7.86133 29.5176 7.86133C28.7279 7.86133 28.0301 8.23266 27.5658 8.80195L19.9019 4.375C19.9768 4.13602 20.0287 3.88664 20.0287 3.62305C20.0287 2.22852 18.894 1.09375 17.4994 1.09375C16.1049 1.09375 14.9702 2.22852 14.9702 3.62305C14.9702 3.88664 15.0221 4.13547 15.097 4.375L7.43312 8.80195C6.96882 8.23266 6.27101 7.86133 5.48132 7.86133C4.08679 7.86133 2.95203 8.99609 2.95203 10.3906C2.95203 11.5959 3.80132 12.6038 4.93171 12.8559V21.7459C3.80132 21.998 2.95203 23.0059 2.95203 24.2113H2.95257ZM5.48187 25.6468C4.69054 25.6468 4.04632 25.0026 4.04632 24.2113C4.04632 23.4199 4.68671 22.7801 5.47476 22.7762C5.4764 22.7762 5.4775 22.7773 5.47914 22.7773C5.48132 22.7773 5.48296 22.7762 5.48515 22.7762C6.27484 22.7784 6.91742 23.421 6.91742 24.2113C6.91742 25.0015 6.2732 25.6468 5.48187 25.6468ZM17.4929 32.8125C16.7016 32.8125 16.0573 32.1683 16.0573 31.377C16.0573 30.5856 16.7016 29.9414 17.4929 29.9414C18.2842 29.9414 18.9284 30.5856 18.9284 31.377C18.9284 32.1683 18.2842 32.8125 17.4929 32.8125ZM30.9531 24.2113C30.9531 25.0026 30.3089 25.6468 29.5176 25.6468C28.7262 25.6468 28.082 25.0026 28.082 24.2113C28.082 23.4199 28.7241 22.7779 29.5143 22.7762C29.5165 22.7762 29.5181 22.7773 29.5203 22.7773C29.5219 22.7773 29.523 22.7762 29.5247 22.7762C30.3127 22.7801 30.9531 23.4221 30.9531 24.2113ZM29.5176 8.95508C30.3089 8.95508 30.9531 9.5993 30.9531 10.3906C30.9531 11.182 30.3089 11.8262 29.5176 11.8262C28.7262 11.8262 28.082 11.182 28.082 10.3906C28.082 10.1839 28.128 9.98812 28.2073 9.81039C28.2084 9.80875 28.21 9.80766 28.2111 9.80547C28.2122 9.80383 28.2122 9.80164 28.2127 9.8C28.4386 9.30289 28.9373 8.95508 29.5176 8.95508ZM17.4994 2.1875C18.2908 2.1875 18.935 2.83172 18.935 3.62305C18.935 4.41438 18.2908 5.05859 17.4994 5.05859C16.7081 5.05859 16.0639 4.41438 16.0639 3.62305C16.0639 2.83172 16.7081 2.1875 17.4994 2.1875ZM15.6401 5.32383C16.1027 5.82914 16.7617 6.15234 17.4994 6.15234C18.2372 6.15234 18.8962 5.82914 19.3588 5.32383L27.0714 9.77922C27.0222 9.97609 26.9883 10.179 26.9883 10.3906C26.9883 11.5981 27.8403 12.6071 28.9734 12.8576V21.7443C27.8403 21.9942 26.9883 23.0037 26.9883 24.2113C26.9883 24.5481 27.0572 24.868 27.1769 25.1623L19.3506 29.6751C18.888 29.1703 18.2295 28.8477 17.4923 28.8477C16.7552 28.8477 16.1005 29.1681 15.6384 29.6702L7.82195 25.1623C7.94171 24.868 8.01062 24.5481 8.01062 24.2113C8.01062 23.0037 7.15859 21.9948 6.02546 21.7443V12.8576C7.15859 12.6077 8.01062 11.5981 8.01062 10.3906C8.01062 10.1784 7.97671 9.97609 7.9275 9.77922L15.6401 5.32383ZM4.04632 10.3906C4.04632 9.5993 4.69054 8.95508 5.48187 8.95508C6.0621 8.95508 6.56085 9.30289 6.78671 9.8C6.78781 9.80164 6.78781 9.80383 6.78835 9.80547C6.78945 9.80711 6.79109 9.80875 6.79218 9.81039C6.87148 9.98812 6.91687 10.1839 6.91687 10.3906C6.91687 11.182 6.27265 11.8262 5.48132 11.8262C4.69 11.8262 4.04578 11.182 4.04578 10.3906H4.04632Z" fill="white"/>
</g>
</svg>
