<svg width="35" height="35" viewBox="0 0 35 35" fill="none" xmlns="http://www.w3.org/2000/svg">
<g id="Magic" clip-path="url(#clip0_179_145)">
<g id="_x30_33-Magic_Wand_Tool-_x28_illustrator_x2C__design_x2C__vector_x2C__line_x2C__draw_x29_">
<path id="XMLID_1_" d="M29.6494 21.0605C29.5629 20.9732 29.4813 20.8821 29.4045 20.7875C29.3278 20.8821 29.2462 20.9732 29.1597 21.0605C29.0657 21.1554 28.9672 21.2446 28.8644 21.3281C28.9672 21.4116 29.0657 21.5008 29.1597 21.5957C29.2462 21.6831 29.3278 21.7742 29.4045 21.8688C29.4813 21.7742 29.5629 21.6831 29.6494 21.5957C29.7433 21.5008 29.8419 21.4116 29.9447 21.3281C29.8419 21.2446 29.7433 21.1554 29.6494 21.0605Z" stroke="white" stroke-width="1.8" stroke-miterlimit="10" stroke-linecap="round" stroke-linejoin="round"/>
<path id="XMLID_4_" d="M17.6182 3.56052C17.5317 3.47317 17.4501 3.38207 17.3734 3.28745C17.2967 3.38207 17.2151 3.47317 17.1286 3.56052C17.0346 3.65541 16.9361 3.74463 16.8333 3.82812C16.9361 3.91162 17.0346 4.00084 17.1286 4.09573C17.2151 4.18308 17.2967 4.27418 17.3734 4.3688C17.4501 4.27418 17.5317 4.18308 17.6182 4.09573C17.7122 4.00084 17.8107 3.91162 17.9135 3.82812C17.8107 3.74463 17.7122 3.65541 17.6182 3.56052Z" stroke="white" stroke-width="1.8" stroke-miterlimit="10" stroke-linecap="round" stroke-linejoin="round"/>
<path id="XMLID_3_" d="M32.3837 9.02927C32.2972 8.94192 32.2156 8.85082 32.1389 8.7562C32.0622 8.85082 31.9806 8.94192 31.8941 9.02927C31.8001 9.12416 31.7016 9.21338 31.5988 9.29688C31.7016 9.38037 31.8001 9.46959 31.8941 9.56448C31.9806 9.65183 32.0622 9.74293 32.1389 9.83755C32.2156 9.74293 32.2972 9.65183 32.3837 9.56448C32.4777 9.46959 32.5762 9.38037 32.679 9.29688C32.5762 9.21338 32.4777 9.12416 32.3837 9.02927Z" stroke="white" stroke-width="1.8" stroke-miterlimit="10" stroke-linecap="round" stroke-linejoin="round"/>
<path id="Vector" d="M29.0012 4.69527L29.6718 3.70769L26.7978 1.61015L22.4348 7.31618L25.3629 9.45419L29.0012 4.69527Z" stroke="white" stroke-width="1.8" stroke-miterlimit="10" stroke-linecap="round" stroke-linejoin="round"/>
<path id="Vector_2" d="M26.7978 1.61017L5.5025 29.4632L8.43005 31.6011L29.0012 4.69526L29.6718 3.70769L26.7978 1.61017Z" stroke="white" stroke-width="1.8" stroke-miterlimit="10" stroke-linecap="round" stroke-linejoin="round"/>
</g>
</g>
<defs>
<clipPath id="clip0_179_145">
<rect width="35" height="35" fill="white"/>
</clipPath>
</defs>
</svg>
