<svg width="35" height="35" viewBox="0 0 35 35" fill="none" xmlns="http://www.w3.org/2000/svg">
<g id="login">
<path id="Vector" fill-rule="evenodd" clip-rule="evenodd" d="M21.1458 18.2291H3.64581V16.7708H21.1458V18.2291Z" fill="white" stroke="white" stroke-width="0.5"/>
<path id="Vector_2" fill-rule="evenodd" clip-rule="evenodd" d="M16.5579 11.8796L21.6621 16.9837C21.73 17.0515 21.7838 17.1319 21.8206 17.2205C21.8574 17.3091 21.8763 17.4041 21.8763 17.5C21.8763 17.5959 21.8574 17.6909 21.8206 17.7795C21.7838 17.868 21.73 17.9485 21.6621 18.0162L16.5579 23.1204L15.5269 22.0894L20.1148 17.5L15.5269 12.9121L16.5579 11.8796Z" fill="white" stroke="white" stroke-width="0.5"/>
<path id="Vector_3" fill-rule="evenodd" clip-rule="evenodd" d="M19.6875 6.56253C17.6719 6.56198 15.6952 7.11844 13.9759 8.17047C12.2566 9.22251 10.8614 10.7292 9.9444 12.5242L8.64648 11.8592C9.91294 9.38099 11.9765 7.40106 14.505 6.23817C17.0335 5.07529 19.8797 4.79712 22.5855 5.44843C25.2913 6.09975 27.6991 7.64266 29.4215 9.82876C31.1438 12.0149 32.0803 14.717 32.0803 17.5C32.0803 20.2831 31.1438 22.9852 29.4215 25.1713C27.6991 27.3574 25.2913 28.9003 22.5855 29.5516C19.8797 30.2029 17.0335 29.9248 14.505 28.7619C11.9765 27.599 9.91294 25.6191 8.64648 23.1409L9.9444 22.4759C10.8286 24.2067 12.1581 25.6707 13.7961 26.7171C15.434 27.7635 17.3212 28.3546 19.2634 28.4294C21.2056 28.5043 23.1327 28.0602 24.8463 27.1429C26.5599 26.2256 27.9981 24.8683 29.0129 23.2106C30.0277 21.5529 30.5824 19.6547 30.62 17.7114C30.6575 15.7681 30.1766 13.8499 29.2266 12.1542C28.2766 10.4585 26.8919 9.04663 25.2151 8.06382C23.5382 7.08101 21.6297 6.5628 19.6861 6.56253H19.6875Z" fill="white" stroke="white" stroke-width="0.5"/>
</g>
</svg>
