<svg width="35" height="35" viewBox="0 0 35 35" fill="none" xmlns="http://www.w3.org/2000/svg">
<g id="Url">
<g id="91 - book">
<path id="Vector" d="M10.325 30.625C11.5873 30.625 12.7983 30.1256 13.6937 29.236L20.4969 22.4328C21.3137 21.6052 21.7984 20.5065 21.8589 19.3452C21.9194 18.1839 21.5515 17.0409 20.825 16.1328C20.7827 16.0578 20.7271 15.9911 20.6609 15.936L20.4641 15.7281C20.2548 15.549 19.9857 15.4553 19.7104 15.466C19.4351 15.4766 19.174 15.5907 18.9792 15.7855C18.7844 15.9803 18.6703 16.2414 18.6597 16.5167C18.6491 16.792 18.7427 17.0611 18.9219 17.2703C19.3981 17.748 19.6655 18.395 19.6655 19.0696C19.6655 19.7441 19.3981 20.3911 18.9219 20.8688L12.1406 27.6828C11.9028 27.9223 11.6199 28.1123 11.3083 28.2419C10.9967 28.3716 10.6625 28.4384 10.325 28.4384C9.9875 28.4384 9.65333 28.3716 9.34173 28.2419C9.03012 28.1123 8.74725 27.9223 8.50937 27.6828L7.31719 26.4906C7.07776 26.2528 6.88775 25.9699 6.75809 25.6583C6.62842 25.3467 6.56167 25.0125 6.56167 24.675C6.56167 24.3375 6.62842 24.0034 6.75809 23.6918C6.88775 23.3802 7.07776 23.0973 7.31719 22.8594L10.3031 19.8625C10.4044 19.7605 10.4846 19.6396 10.5391 19.5066C10.5936 19.3737 10.6214 19.2313 10.6209 19.0876C10.6204 18.9438 10.5916 18.8016 10.5361 18.6691C10.4807 18.5365 10.3996 18.4161 10.2977 18.3149C10.1957 18.2136 10.0747 18.1334 9.94178 18.0789C9.80881 18.0244 9.66641 17.9966 9.52269 17.9971C9.37898 17.9976 9.23677 18.0264 9.1042 18.0819C8.97162 18.1373 8.85126 18.2184 8.75 18.3203L5.76406 21.3063C4.87508 22.1999 4.37604 23.4091 4.37604 24.6696C4.37604 25.93 4.87508 27.1392 5.76406 28.0328L6.96719 29.236C7.85859 30.125 9.06603 30.6245 10.325 30.625Z" fill="#EBE8EB"/>
<path id="Vector_2" d="M28.0328 5.76406C27.1392 4.87508 25.93 4.37604 24.6695 4.37604C23.4091 4.37604 22.1999 4.87508 21.3063 5.76406L14.5031 12.5672C13.6863 13.3948 13.2016 14.4935 13.1411 15.6548C13.0807 16.8161 13.4485 17.9592 14.175 18.8672C14.2173 18.9422 14.2729 19.0089 14.3391 19.0641L14.536 19.2719C14.7409 19.4756 15.0181 19.5899 15.307 19.5899C15.596 19.5899 15.8732 19.4756 16.0781 19.2719C16.2819 19.0669 16.3962 18.7897 16.3962 18.5008C16.3962 18.2118 16.2819 17.9346 16.0781 17.7297C15.6019 17.252 15.3345 16.605 15.3345 15.9305C15.3345 15.2559 15.6019 14.6089 16.0781 14.1312L22.8594 7.31719C23.0973 7.07776 23.3801 6.88775 23.6917 6.75809C24.0033 6.62842 24.3375 6.56167 24.675 6.56167C25.0125 6.56167 25.3467 6.62842 25.6583 6.75809C25.9699 6.88775 26.2528 7.07776 26.4906 7.31719L27.6828 8.50937C27.9222 8.74725 28.1123 9.03012 28.2419 9.34173C28.3716 9.65333 28.4383 9.9875 28.4383 10.325C28.4383 10.6625 28.3716 10.9967 28.2419 11.3083C28.1123 11.6199 27.9222 11.9028 27.6828 12.1406L24.6969 15.1375C24.5956 15.2395 24.5154 15.3604 24.4609 15.4934C24.4064 15.6263 24.3786 15.7687 24.3791 15.9125C24.3796 16.0562 24.4084 16.1984 24.4639 16.331C24.5193 16.4635 24.6004 16.5839 24.7024 16.6852C24.8043 16.7864 24.9253 16.8666 25.0582 16.9211C25.1912 16.9757 25.3336 17.0035 25.4773 17.0029C25.621 17.0024 25.7632 16.9736 25.8958 16.9182C26.0284 16.8627 26.1488 16.7817 26.25 16.6797L29.2469 13.6937C30.1359 12.8002 30.6349 11.5909 30.6349 10.3305C30.6349 9.06999 30.1359 7.86078 29.2469 6.96719L28.0328 5.76406Z" fill="#EBE8EB"/>
</g>
</g>
</svg>
