<svg width="35" height="35" viewBox="0 0 35 35" fill="none" xmlns="http://www.w3.org/2000/svg">
<g id="ip address">
<path id="Vector" d="M10.487 6.1594L10.1853 6.4611C6.90372 9.74267 6.52966 14.9361 9.30705 18.654L16.5026 28.0293C16.942 28.6018 17.8057 28.5993 18.2418 28.0243L25.367 18.6284C28.1587 14.8963 27.7847 9.68004 24.4891 6.38442L24.2641 6.15944C20.4596 2.35498 14.2914 2.35498 10.487 6.1594Z" stroke="white" stroke-width="1.8"/>
<path id="Vector_2" d="M13 9V17M17 12.6923V17" stroke="white" stroke-width="1.8" stroke-linecap="round"/>
<path id="Vector_3" d="M17 9.5195C17 9.23257 17.2035 9 17.4546 9H19.8125C21.0206 9 22 10.1193 22 11.5C22 12.8807 21.0206 14 19.8125 14H17V9.5195Z" stroke="white" stroke-width="1.8"/>
<path id="Vector_4" d="M9.6615 24.7917H6.75417C6.19169 24.7917 5.67934 25.1152 5.43751 25.623L3.18055 30.3626C2.71972 31.3304 3.42535 32.4479 4.49722 32.4479H30.5029C31.5747 32.4479 32.2804 31.3304 31.8195 30.3626L29.5626 25.623C29.3207 25.1152 28.8084 24.7917 28.2459 24.7917H25.1563" stroke="white" stroke-width="1.8" stroke-linecap="round"/>
</g>
</svg>
