<?xml version="1.0" encoding="UTF-8"?>
<!-- Generator: Adobe Illustrator 24.2.0, SVG Export Plug-In . SVG Version: 6.00 Build 0)  -->
<svg xmlns="http://www.w3.org/2000/svg" xmlns:xlink="http://www.w3.org/1999/xlink" version="1.1" id="Layer_1" x="0px" y="0px" viewBox="0 0 538.7 230" style="enable-background:new 0 0 538.7 230;" xml:space="preserve">
<style type="text/css">
	.st0{fill:#84C4F0;}
	.st1{fill:#FFFFFF;}
</style>
<path class="st0" d="M75.9,61c2.1,0,3.9-1.7,3.9-3.9c0-2.1-1.7-3.9-3.9-3.9c-2.1,0-3.9,1.7-3.9,3.9S73.7,61,75.9,61z"></path>
<path class="st0" d="M43.7,34.8c2.1,0,3.9-1.7,3.9-3.9c0-2.1-1.7-3.9-3.9-3.9c-2.1,0-3.9,1.7-3.9,3.9S41.5,34.8,43.7,34.8z"></path>
<path class="st0" d="M43.5,86.8c3.5,0,6.3-2.8,6.3-6.3s-2.8-6.3-6.3-6.3s-6.3,2.8-6.3,6.3S40,86.8,43.5,86.8z"></path>
<path class="st0" d="M84.6,44.9c2.1,0,3.9-1.7,3.9-3.9c0-2.1-1.7-3.9-3.9-3.9c-2.1,0-3.9,1.7-3.9,3.9S82.5,44.9,84.6,44.9z"></path>
<path class="st0" d="M74.4,84.2c0,5.1,4.1,9.2,9.2,9.2s9.2-4.1,9.2-9.2S88.7,75,83.6,75S74.4,79.1,74.4,84.2z"></path>
<path class="st0" d="M103.2,63.6c3.5,0,6.3-2.8,6.3-6.3s-2.8-6.3-6.3-6.3s-6.3,2.8-6.3,6.3C96.8,60.8,99.7,63.6,103.2,63.6z"></path>
<path class="st0" d="M35.1,60.8c0-2-1.6-3.6-3.6-3.6s-3.6,1.6-3.6,3.6s1.6,3.6,3.6,3.6S35.1,62.8,35.1,60.8z"></path>
<path class="st0" d="M31.3,124.5c0,5,4,9,9,9s9-4,9-9s-4-9-9-9C35.4,115.6,31.3,119.6,31.3,124.5z"></path>
<path class="st0" d="M120.4,81.3c0-0.2,0-0.3,0-0.5c0-6.8-5.5-12.3-12.3-12.3S95.8,74,95.8,80.8c0,0.8,0.1,1.6,0.2,2.3  c0,0.3,0,0.7,0,1c0,6.9-5.6,12.5-12.5,12.5c-3.8,0-7.1-1.7-9.4-4.3c-0.3-0.4-0.7-0.9-1.1-1.3l-0.1-0.1l0,0c-3-3.3-7.4-5.3-12.2-5.3  c-9.2,0-16.7,7.5-16.7,16.7c0,5,2.2,9.4,5.6,12.5l0,0c0.3,0.3,0.6,0.6,0.9,0.9c2.1,2.4,3.3,5.5,3.3,8.9c0,7.3-5.7,13.2-12.9,13.6  l0,0c-6.4,0.1-11.6,5.3-11.6,11.7s5.1,11.5,11.4,11.7c5.4,33.3,34.2,58.7,69,58.7c38.6,0,69.9-31.3,69.9-69.9  C179.7,115.4,154,86.5,120.4,81.3z M121.4,187.4c-0.1-0.1-23.8-24.4-23.8-24.4v31c-10.1,0-18.3-8.3-18.5-18.6l0,0v-32.6h33.1  c4.1,0,7.5-3.4,7.5-7.5s-3.4-7.5-7.5-7.5h-8.3c-0.2,0-0.3,0-0.4,0c0,0-2.2,0-3.9,0h-1.8c-10.4-0.1-18.7-8.3-18.7-18.5h25.6  c12.9,0,21.1,3.1,26.7,8.4c5,4.4,7.5,10.3,7.5,17.9v0.2c0,11.8-6.9,19.6-17.4,23.6l27.8,28.8C141.6,195.8,129.1,195.4,121.4,187.4z"></path>
<path class="st0" d="M21,81.1c-2,0-3.6,1.6-3.6,3.6s1.6,3.6,3.6,3.6s3.6-1.6,3.6-3.6S23,81.1,21,81.1z"></path>
<path class="st0" d="M17.5,105.9c-3.5,0-6.3,2.8-6.3,6.3s2.8,6.3,6.3,6.3s6.3-2.8,6.3-6.3C23.8,108.8,21,105.9,17.5,105.9z"></path>
<path class="st1" d="M259.5,164l-8.2-12c10.3-5,16.8-13.6,16.8-26v-0.2c0-8.8-2.7-15.1-7.8-20.2c-6-6-15.6-9.7-30.7-9.7H188V188  c9.3-1.2,18.8-2.3,28.5-3.3v-28h6.1l17.1,25.9c4.1-0.3,8.3-0.7,12.5-1L259.5,164z M239.7,128c0,5.2-4.1,8.3-11,8.3h-12.3v-16.7h12.4  c6.6,0,10.8,2.7,10.8,8.2v0.2H239.7z"></path>
<path class="st1" d="M416.5,133.4l-30.3-37.6h-26.6v61.7l8.5,20.4c6.6,0.1,13.2,0.1,19.7,0.3v-36.5l30.1,37.5  c9.1,0.4,18,0.9,26.8,1.4V95.8h-28.2V133.4z"></path>
<path class="st1" d="M292,179.1l3.7-9.6h29.8l3.3,8.5c8.8-0.2,17.6-0.2,26.6-0.2c1.4,0,2.8,0,4.2,0L325,95.2h-28.2l-35.9,85.7  C271.1,180.2,281.4,179.6,292,179.1z M310.6,128.6l7.8,20.7h-15.6L310.6,128.6z"></path>
<path class="st0" d="M212.1,197.7h4.3c3.9,0,6.6,2.7,6.6,6.2l0,0c0,3.5-2.7,6.2-6.6,6.2h-4.3V197.7z M216.4,208.9  c3.1,0,5.1-2.1,5.1-4.9l0,0c0-2.8-2-4.9-5.1-4.9h-2.9v9.8L216.4,208.9L216.4,208.9z"></path>
<path class="st0" d="M226.8,197.7h1.4v12.4h-1.4V197.7z"></path>
<path class="st0" d="M232,204L232,204c0-3.4,2.5-6.5,6.2-6.5c2.1,0,3.4,0.6,4.6,1.7l-0.9,1.1c-1-0.8-2-1.4-3.8-1.4  c-2.8,0-4.7,2.3-4.7,5.1l0,0c0,3,1.9,5.2,4.9,5.2c1.4,0,2.7-0.6,3.6-1.2v-3.1h-3.8v-1.3h5.1v5c-1.2,1-2.9,1.9-5,1.9  C234.5,210.4,232,207.5,232,204z"></path>
<path class="st0" d="M247.3,197.7h1.4v12.4h-1.4V197.7z"></path>
<path class="st0" d="M256.4,199h-4.2v-1.3h9.8v1.3h-4.2v11.1h-1.4V199z"></path>
<path class="st0" d="M268.3,197.6h1.3l5.7,12.5h-1.5l-1.5-3.3h-6.8l-1.5,3.3h-1.4L268.3,197.6z M271.8,205.6l-2.8-6.3l-2.8,6.3  H271.8z"></path>
<path class="st0" d="M278.4,197.7h1.4v11.1h7v1.3h-8.4V197.7z"></path>
<path class="st0" d="M296.2,197.7h1.4l4.5,6.8l4.5-6.8h1.4v12.4h-1.4V200l-4.5,6.7H302l-4.5-6.6v10h-1.4v-12.4H296.2z"></path>
<path class="st0" d="M316.9,197.6h1.3l5.7,12.5h-1.5l-1.5-3.3h-6.8l-1.5,3.3h-1.4L316.9,197.6z M320.3,205.6l-2.8-6.3l-2.8,6.3  H320.3z"></path>
<path class="st0" d="M327,197.7h5.3c1.5,0,2.8,0.5,3.5,1.2c0.6,0.6,1,1.5,1,2.4l0,0c0,2.1-1.4,3.3-3.4,3.6l3.8,5.1h-1.7l-3.6-4.8  h-3.5v4.8H327V197.7z M332.2,204.1c1.9,0,3.2-1,3.2-2.6l0,0c0-1.5-1.2-2.5-3.2-2.5h-3.8v5h3.8V204.1z"></path>
<path class="st0" d="M340.6,197.7h1.4v7.4l7.1-7.4h1.8l-5.3,5.4l5.6,7h-1.8l-4.8-6l-2.6,2.7v3.3h-1.4L340.6,197.7L340.6,197.7z"></path>
<path class="st0" d="M354,197.7h9v1.3h-7.6v4.2h6.8v1.3h-6.8v4.3h7.7v1.3H354V197.7z"></path>
<path class="st0" d="M369.9,199h-4.2v-1.3h9.8v1.3h-4.2v11.1h-1.4L369.9,199L369.9,199z"></path>
<path class="st0" d="M379,197.7h1.4v12.4H379V197.7z"></path>
<path class="st0" d="M384.7,197.7h1.3l7.8,10v-10h1.4v12.4h-1.1l-8-10.2v10.2h-1.4L384.7,197.7L384.7,197.7z"></path>
<path class="st0" d="M398.9,204L398.9,204c0-3.4,2.5-6.5,6.2-6.5c2.1,0,3.4,0.6,4.6,1.7l-0.9,1.1c-1-0.8-2-1.4-3.8-1.4  c-2.8,0-4.7,2.3-4.7,5.1l0,0c0,3,1.9,5.2,4.9,5.2c1.4,0,2.7-0.6,3.6-1.2v-3.1H405v-1.3h5.1v5c-1.2,1-2.9,1.9-5,1.9  C401.3,210.4,398.9,207.5,398.9,204z"></path>
<path class="st0" d="M424.7,197.6h1.3l5.7,12.5h-1.5l-1.5-3.3H422l-1.5,3.3H419L424.7,197.6z M428.2,205.6l-2.8-6.3l-2.8,6.3H428.2z  "></path>
<path class="st0" d="M433.6,204L433.6,204c0-3.4,2.5-6.5,6.2-6.5c2.1,0,3.4,0.6,4.6,1.7l-0.9,1.1c-1-0.8-2-1.4-3.8-1.4  c-2.8,0-4.7,2.3-4.7,5.1l0,0c0,3,1.9,5.2,4.9,5.2c1.4,0,2.7-0.6,3.6-1.2v-3.1h-3.8v-1.3h5.1v5c-1.2,1-2.9,1.9-5,1.9  C436,210.4,433.6,207.5,433.6,204z"></path>
<path class="st0" d="M448.7,197.7h9v1.3h-7.6v4.2h6.8v1.3h-6.8v4.3h7.7v1.3h-9.1V197.7z"></path>
<path class="st0" d="M461.3,197.7h1.3l7.8,10v-10h1.4v12.4h-1.1l-8-10.2v10.2h-1.4L461.3,197.7L461.3,197.7z"></path>
<path class="st0" d="M475.5,204L475.5,204c0-3.6,2.6-6.5,6.3-6.5c2.3,0,3.6,0.8,4.8,2l-1,1c-1-1-2.2-1.7-3.9-1.7  c-2.8,0-4.8,2.2-4.8,5.1l0,0c0,2.9,2.1,5.1,4.8,5.1c1.7,0,2.8-0.7,4-1.8l0.9,0.9c-1.3,1.3-2.7,2.2-5,2.2  C478.2,210.4,475.5,207.5,475.5,204z"></path>
<path class="st0" d="M493.6,205.2l-5.2-7.5h1.7l4.2,6.2l4.2-6.2h1.6l-5.2,7.5v4.9h-1.4L493.6,205.2L493.6,205.2z"></path>
<path class="st1" d="M478.9,157.6v-9.2h40.2v-20.6h-40.2v-8.6h43.3V95.8h-68.9v85.3c24.3,1.7,47.6,4,69.5,6.9v-30.4H478.9z"></path>
</svg>
